<svg xmlns="http://www.w3.org/2000/svg" xmlns:xlink="http://www.w3.org/1999/xlink" x="0px" y="0px" viewBox="0 0 1000 1000" enable-background="new 0 0 1000 1000" xml:space="preserve">
<metadata> Svg Vector Icons : http://www.onlinewebfonts.com/icon </metadata>
<g><g transform="translate(0.000000,511.000000) scale(0.100000,-0.100000)"><path d="M9095.1,4928.1c-1073.3-105.2-2375.7-699.2-3308.7-1505.9c-259.5-224.5-963.4-933-1218.3-1225.3c-126.3-145-514.4-624.3-537.8-661.7c-2.3-4.7-187.1,63.1-409.2,149.6c-336.7,128.6-432.6,156.7-547.2,159c-217.5,0-399.9-116.9-474.7-304c-39.8-102.9-308.7-1192.5-308.7-1255.7c0-30.4,14-72.5,30.4-95.9c42.1-58.5,105.2-35.1,254.9,93.5c163.7,138,325,187.1,502.7,152c219.8-44.4,430.2-226.8,519.1-449c79.5-203.4,306.3-533.1,507.4-745.9c243.2-254.9,502.7-444.3,792.7-584.6c168.4-81.8,266.6-147.3,334.4-219.8c149.7-161.3,180-236.2,180-434.9s-25.7-259.5-175.4-432.6c-70.1-79.5-93.5-128.6-88.9-173c11.7-102.9,133.3-91.2,767,67.8c612.6,154.3,715.5,194.1,802,308.7c154.3,212.8,145,353.1-60.8,888.6l-149.7,388.2l119.3,91.2C7154.3-461.7,8185.5,527.4,8550.3,983.3C9036.7,1596,9410.8,2288.1,9668,3062.1c175.4,526.1,231.5,813.7,231.5,1204.2c2.3,282.9-2.4,327.4-51.4,423.2c-65.5,133.3-177.7,198.8-392.8,231.5C9293.9,4944.4,9251.8,4944.4,9095.1,4928.1z M7512.1,2664.6c109.9-77.2,156.7-168.4,156.7-311c0-278.3-275.9-453.6-523.8-334.4c-194.1,95.9-268.9,306.3-173,493.4c72.5,142.6,180,210.4,332,210.4C7392.8,2723,7446.6,2709,7512.1,2664.6z M6354.6,1766.7c168.4-91.2,280.6-205.8,369.4-381.2c93.5-177.7,105.2-484,30.4-685.1c-72.5-194.1-282.9-404.5-477-479.4c-194.1-74.8-439.6-74.8-631.3,0c-194.1,74.8-404.5,287.6-477,479.4c-154.3,411.5,18.7,872.2,404.6,1068.6c154.3,79.5,201.1,88.8,423.2,81.8C6183.9,1843.8,6223.7,1834.5,6354.6,1766.7z"/><path d="M3031.9,92.4c-208.1-282.9-362.4-568.2-395.2-717.8c-112.2-540.1,643-1477.8,1358.6-1688.3c222.1-65.5,371.8-51.4,575.2,53.8c177.7,93.5,500.4,301.7,631.3,409.2l70.2,58.5l-116.9,2.3c-180,0-374.1,58.5-631.3,187.1c-519.1,261.9-989.1,757.6-1218.3,1283.7c-79.5,182.4-138,456-119.3,554.2c4.7,30.4,7,56.1,2.3,56.1C3183.9,291.2,3113.7,202.3,3031.9,92.4z"/><path d="M1867.4-1488.3c-367.1-53.8-687.5-287.6-841.8-617.3c-119.3-254.9-140.3-378.8-161.3-993.8c-21-633.7-56.1-874.5-156.7-1075.6c-88.9-173-180-226.8-336.7-196.4c-60.8,14.1-107.6,16.4-100.5,4.7c25.7-39.8,346.1-215.2,491-268.9c322.7-114.6,612.6-112.3,869.8,9.4c156.7,72.5,376.5,287.6,474.7,463c39.7,70.1,74.8,128.6,74.8,128.6c2.3,0,4.7-70.1,4.7-159c0-161.4,46.8-292.3,152-425.6l46.8-58.5l-14,109.9c-28.1,212.8,93.5,371.8,418.6,547.1c222.1,119.3,500.4,392.9,598.6,589.3c109.9,217.5,152,404.5,135.6,612.6c-14,180.1-81.8,437.3-109.9,404.5c-7-9.4-28.1-70.1-42.1-135.6c-46.8-191.7-182.4-444.3-287.6-535.5c-175.4-147.3-318-152-706.2-16.4c-224.5,79.5-484,107.6-638.4,74.8c-72.5-16.4-149.6-49.1-175.4-74.8c-44.4-44.4-44.4-44.4-44.4,4.7c0,205.8,273.6,427.9,654.7,533.1c329.7,91.2,423.2,173,280.6,247.9c-98.2,51.5-332,53.8-406.9,2.4c-58.5-37.4-58.5-37.4-81.8,51.4c-102.9,362.4,84.2,636,463,675.8c180.1,18.7,149.7,44.4-109.9,91.2C2119.9-1460.2,2059.1-1460.2,1867.4-1488.3z"/><path d="M513.5-3111.1c0-51.4-7-56.1-44.4-37.4c-37.4,21.1-46.8,16.4-58.5-28c-7-30.4-74.8-100.6-154.3-156.7c-163.7-119.2-191.7-177.7-116.9-238.5c107.6-86.6,268.9-28.1,395.2,145c112.2,154.3,121.6,299.3,23.4,350.8C520.5-3054.9,513.5-3059.6,513.5-3111.1z"/></g></g>
</svg>